<svg width="78" height="78" viewBox="0 0 78 78" fill="none" xmlns="http://www.w3.org/2000/svg">
<path d="M57.9034 31.1721C57.8144 29.153 57.4878 27.7649 57.02 26.5621C56.5374 25.2853 55.7949 24.1423 54.8221 23.192C53.8717 22.227 52.7209 21.4771 51.4587 21.0021C50.2487 20.5344 48.8675 20.2079 46.8481 20.1189C44.8135 20.0223 44.1676 20 39.0074 20C33.8472 20 33.2013 20.0223 31.1743 20.1113C29.1548 20.2004 27.7664 20.5272 26.5637 20.9946C25.2864 21.4771 24.1431 22.2195 23.1926 23.192C22.2274 24.1423 21.4777 25.2929 21.0023 26.5549C20.5345 27.7649 20.208 29.1455 20.1189 31.1646C20.0223 33.1987 20 33.8445 20 39.0037C20 44.1629 20.0223 44.8087 20.1114 46.8353C20.2004 48.8544 20.5273 50.2425 20.9951 51.4453C21.4777 52.7221 22.2274 53.8652 23.1926 54.8154C24.1431 55.7804 25.2939 56.5303 26.5561 57.0053C27.7664 57.473 29.1473 57.7995 31.167 57.8885C33.1937 57.9778 33.8399 57.9999 39.0001 57.9999C44.1604 57.9999 44.8063 57.9778 46.8333 57.8885C48.8528 57.7995 50.2411 57.473 51.4439 57.0053C53.9982 56.0179 56.0176 53.9988 57.0052 51.4453C57.4727 50.2353 57.7996 48.8544 57.8886 46.8353C57.9777 44.8087 58 44.1629 58 39.0037C58 33.8445 57.9925 33.1987 57.9034 31.1721ZM54.4808 46.6869C54.399 48.5427 54.0872 49.5448 53.8273 50.2129C53.1887 51.8684 51.8746 53.1823 50.2188 53.8208C49.5506 54.0806 48.541 54.3923 46.692 54.4738C44.6873 54.5631 44.0861 54.5852 39.0149 54.5852C33.9438 54.5852 33.335 54.5631 31.3376 54.4738C29.4814 54.3923 28.479 54.0806 27.8108 53.8208C26.9868 53.5163 26.2368 53.0338 25.628 52.4028C24.9969 51.7866 24.5143 51.0443 24.2098 50.2205C23.9499 49.5524 23.6381 48.5427 23.5566 46.6944C23.4673 44.6901 23.4453 44.0887 23.4453 39.0185C23.4453 33.9483 23.4673 33.3397 23.5566 31.3429C23.6381 29.4871 23.9499 28.4849 24.2098 27.8168C24.5143 26.9927 24.9969 26.2431 25.6356 25.6342C26.2516 25.0032 26.9941 24.5207 27.8183 24.2165C28.4866 23.9567 29.4964 23.645 31.3451 23.5632C33.3498 23.4742 33.9513 23.4518 39.0222 23.4518C44.1009 23.4518 44.7021 23.4742 46.6996 23.5632C48.5558 23.645 49.5581 23.9567 50.2263 24.2165C51.0503 24.5207 51.8003 25.0032 52.4091 25.6342C53.0402 26.2504 53.5228 26.9927 53.8273 27.8168C54.0872 28.4849 54.399 29.4943 54.4808 31.3429C54.5698 33.3472 54.5922 33.9483 54.5922 39.0185C54.5922 44.0887 54.5698 44.6826 54.4808 46.6869Z" fill="white"/>
<path d="M39.0075 29.242C33.6173 29.242 29.2439 33.6143 29.2439 39.0037C29.2439 44.3932 33.6173 48.7654 39.0075 48.7654C44.398 48.7654 48.771 44.3932 48.771 39.0037C48.771 33.6143 44.398 29.242 39.0075 29.242ZM39.0075 45.3359C35.5106 45.3359 32.6741 42.5002 32.6741 39.0037C32.6741 35.5072 35.5106 32.6716 39.0075 32.6716C42.5046 32.6716 45.3409 35.5072 45.3409 39.0037C45.3409 42.5002 42.5046 45.3359 39.0075 45.3359V45.3359Z" fill="white"/>
<path d="M51.4358 28.8561C51.4358 30.1146 50.4154 31.135 49.1566 31.135C47.8981 31.135 46.8777 30.1146 46.8777 28.8561C46.8777 27.5973 47.8981 26.5772 49.1566 26.5772C50.4154 26.5772 51.4358 27.5973 51.4358 28.8561V28.8561Z" fill="white"/>
</svg>
