<svg width="78" height="78" viewBox="0 0 78 78" fill="none" xmlns="http://www.w3.org/2000/svg">
<path d="M56.9912 56.0005V55.999H57.0002V42.7958C57.0002 36.3367 55.6097 31.3611 48.0586 31.3611C44.4285 31.3611 41.9925 33.3532 40.998 35.2417H40.893V31.9642H33.7334V55.999H41.1885V44.0978C41.1885 40.9643 41.7825 37.9342 45.663 37.9342C49.4866 37.9342 49.5436 41.5103 49.5436 44.2988V56.0005H56.9912Z" fill="white"/>
<path d="M21.5938 31.9657H29.0578V56.0005H21.5938V31.9657Z" fill="white"/>
<path d="M25.3231 20C22.9365 20 21 21.9365 21 24.3231C21 26.7096 22.9365 28.6866 25.3231 28.6866C27.7096 28.6866 29.6461 26.7096 29.6461 24.3231C29.6446 21.9365 27.7081 20 25.3231 20V20Z" fill="white"/>
</svg>
